# xmcd CD database file
#
# Track frame offsets:
#	150
#	25705
#	50590
#	71815
#	96217
#	111737
#	160100
#	183880
#	201590
#	220315
#	230487
#
# Disc length: 3192 seconds
#
# Revision: 0
# Processed by: cddbd v1.4PL0 Copyright (c) Steve Scherf et al.
# Submitted via: CDex 1.50
#
DISCID=a30c760b
DTITLE=Dudley Moore Trio - Authentic Dud vol. 2
DYEAR=2002
DGENRE=Jazz
TTITLE0=My Blue Heaven
TTITLE1=Lysie Does It
TTITLE2=Poova Nova
TTITLE3=Take Your Time
TTITLE4=Indiana
TTITLE5=Sooz Blues
TTITLE6=Baubles, Bangles and Beads
TTITLE7=Sad One for George
TTITLE8=Autumn Leaves
TTITLE9=Strictly for the Birds
TTITLE10=Duddley Dell
EXTD=YEAR: 2002
EXTT0=
EXTT1=
EXTT2=
EXTT3=
EXTT4=
EXTT5=
EXTT6=
EXTT7=
EXTT8=
EXTT9=
EXTT10=
PLAYORDER=
